<svg xmlns="http://www.w3.org/2000/svg" viewBox="0 0 520 310" role="img" aria-labelledby="title desc">
  <title id="title">منظومة غرس الرقمية</title>
  <desc id="desc">نبتة غرس مضيئة تحيط بها بطاقات الأنظمة المدرسية المتصلة</desc>
  <defs>
    <linearGradient id="glass" x1="0" y1="0" x2="1" y2="1">
      <stop stop-color="#ffffff" stop-opacity=".96"/>
      <stop offset="1" stop-color="#f7e8f0" stop-opacity=".82"/>
    </linearGradient>
    <linearGradient id="leaf" x1="0" y1="0" x2="1" y2="1">
      <stop stop-color="#cbe77e"/>
      <stop offset="1" stop-color="#7ea342"/>
    </linearGradient>
    <linearGradient id="plum" x1="0" y1="0" x2="1" y2="1">
      <stop stop-color="#d0438f"/>
      <stop offset="1" stop-color="#84114f"/>
    </linearGradient>
    <filter id="shadow" x="-40%" y="-40%" width="180%" height="190%">
      <feDropShadow dx="0" dy="15" stdDeviation="15" flood-color="#430b2d" flood-opacity=".24"/>
    </filter>
    <filter id="glow" x="-80%" y="-80%" width="260%" height="260%">
      <feGaussianBlur stdDeviation="6" result="b"/>
      <feMerge><feMergeNode in="b"/><feMergeNode in="SourceGraphic"/></feMerge>
    </filter>
  </defs>

  <ellipse cx="263" cy="282" rx="157" ry="17" fill="#4b0b32" opacity=".18"/>
  <circle cx="260" cy="154" r="115" fill="none" stroke="#ffffff" stroke-opacity=".13" stroke-width="2" stroke-dasharray="4 12"/>
  <circle cx="260" cy="154" r="88" fill="#ffffff" opacity=".045"/>

  <g fill="none" stroke="#d5e88f" stroke-opacity=".38" stroke-width="2">
    <path d="M153 96C191 105 196 118 210 132"/>
    <path d="M365 91C331 103 324 119 311 135"/>
    <path d="M377 226C339 214 325 198 311 182"/>
    <path d="M141 221C181 213 193 197 207 181"/>
  </g>

  <g filter="url(#shadow)">
    <rect x="184" y="46" width="152" height="212" rx="37" fill="url(#glass)"/>
    <rect x="197" y="59" width="126" height="186" rx="28" fill="#ffffff" fill-opacity=".43" stroke="#ffffff" stroke-opacity=".65"/>
    <rect x="235" y="68" width="50" height="6" rx="3" fill="#8c1a5c" opacity=".23"/>
  </g>

  <g transform="translate(260 160)">
    <circle r="54" fill="#8c1a5c" opacity=".08"/>
    <path d="M0 54C-2 18 4-11 18-37" fill="none" stroke="url(#plum)" stroke-width="8" stroke-linecap="round"/>
    <path d="M5 17C31-13 62-16 81 0C66 27 37 32 5 17Z" fill="url(#leaf)"/>
    <path d="M7 35C-17 10-46 9-63 25C-47 46-21 49 7 35Z" fill="url(#leaf)"/>
    <path d="M17-36C-2-57 4-79 20-91C40-71 39-51 17-36Z" fill="url(#plum)"/>
    <circle cy="56" r="5" fill="#b7d567" filter="url(#glow)"/>
  </g>

  <g filter="url(#shadow)">
    <g transform="translate(74 57)">
      <rect width="86" height="72" rx="22" fill="#ffffff" fill-opacity=".92"/>
      <rect x="23" y="20" width="40" height="35" rx="7" fill="none" stroke="#8c1a5c" stroke-width="4"/>
      <path d="M23 32H63M34 15V25M53 15V25" fill="none" stroke="#9fc457" stroke-width="4" stroke-linecap="round"/>
    </g>
    <g transform="translate(361 52)">
      <rect width="84" height="74" rx="22" fill="#ffffff" fill-opacity=".9"/>
      <path d="M23 50V39M42 50V25M61 50V17" fill="none" stroke="#8fb34d" stroke-width="7" stroke-linecap="round"/>
    </g>
    <g transform="translate(373 194)">
      <rect width="87" height="73" rx="22" fill="#ffffff" fill-opacity=".9"/>
      <path d="M25 48C18 45 18 31 24 25C31 20 37 26 43 26C50 26 56 20 63 25C69 31 69 45 62 48C56 51 53 43 48 43H39C34 43 31 51 25 48Z" fill="none" stroke="#8c1a5c" stroke-width="4"/>
      <path d="M29 34H38M33.5 29.5V38.5" stroke="#8fb34d" stroke-width="4" stroke-linecap="round"/>
      <circle cx="57" cy="32" r="2.5" fill="#8fb34d"/><circle cx="63" cy="38" r="2.5" fill="#8fb34d"/>
    </g>
    <g transform="translate(59 189)">
      <rect width="88" height="73" rx="22" fill="#ffffff" fill-opacity=".9"/>
      <circle cx="44" cy="36" r="19" fill="none" stroke="#8fb34d" stroke-width="4"/>
      <path d="M44 25V37L53 42" fill="none" stroke="#8c1a5c" stroke-width="4" stroke-linecap="round" stroke-linejoin="round"/>
    </g>
  </g>

  <g fill="#f2da75">
    <path d="M116 155l4 9 10 1-8 7 3 10-9-5-9 5 2-10-7-7 10-1z"/>
    <circle cx="397" cy="155" r="5"/>
  </g>
  <g fill="#ffffff" opacity=".65"><circle cx="159" cy="42" r="4"/><circle cx="342" cy="28" r="3"/><circle cx="475" cy="145" r="4"/></g>
</svg>
