<svg xmlns="http://www.w3.org/2000/svg" viewBox="0 0 520 330" role="img" aria-labelledby="t d">
  <title id="t">التعلم ينمو</title><desc id="d">أوراق وكتاب وتقويم في مشهد تعليمي هادئ</desc>
  <defs><linearGradient id="g" x1="0" y1="0" x2="1" y2="1"><stop stop-color="#c5dc82"/><stop offset="1" stop-color="#7ea449"/></linearGradient><linearGradient id="p" x1="0" y1="0" x2="1" y2="1"><stop stop-color="#b62a7d"/><stop offset="1" stop-color="#741147"/></linearGradient></defs>
  <ellipse cx="280" cy="287" rx="185" ry="17" fill="#4f1135" opacity=".1"/>
  <path d="M259 270c-5-86 8-160 65-215" fill="none" stroke="url(#p)" stroke-width="12" stroke-linecap="round"/>
  <path d="M277 179c40-59 103-70 151-39-25 59-84 74-151 39zM268 227c-37-51-92-57-130-25 26 48 79 57 130 25z" fill="url(#g)"/>
  <path d="M307 110c-24-44-10-84 22-105 35 32 35 74-22 105z" fill="url(#p)"/>
  <g transform="translate(83 197)"><path d="M0 25c59-19 112-13 171 24v72C117 91 62 84 0 103z" fill="#fff"/><path d="M342 25c-59-19-112-13-171 24v72c54-30 109-37 171-18z" fill="#fff7fb"/><path d="M171 49v72" stroke="#e0bbcd" stroke-width="4"/></g>
  <g transform="translate(366 181)"><rect width="93" height="74" rx="16" fill="#fff"/><path d="M0 22h93" stroke="#981861" stroke-width="9"/><path d="M24 10V1M69 10V1" stroke="#fff" stroke-width="6" stroke-linecap="round"/><path d="M23 42h47M23 57h31" stroke="#9fbc5c" stroke-width="6" stroke-linecap="round"/></g>
  <g fill="#f1ce63"><path d="M94 111l6 13 14 2-10 10 3 14-13-7-13 7 3-14-10-10 14-2z"/><circle cx="442" cy="91" r="8"/></g>
</svg>
